<?xml version="1.0" encoding="UTF-8"?>
<svg width="40px" height="40px" viewBox="0 0 40 40" version="1.1" xmlns="http://www.w3.org/2000/svg" xmlns:xlink="http://www.w3.org/1999/xlink">
    <!-- Generator: Sketch 50.2 (55047) - http://www.bohemiancoding.com/sketch -->
    <title>editprofile</title>
    <desc>Created with Sketch.</desc>
    <defs>
        <filter x="-21.9%" y="-15.6%" width="143.8%" height="143.8%" filterUnits="objectBoundingBox" id="filter-1">
            <feOffset dx="0" dy="2" in="SourceAlpha" result="shadowOffsetOuter1"></feOffset>
            <feGaussianBlur stdDeviation="2" in="shadowOffsetOuter1" result="shadowBlurOuter1"></feGaussianBlur>
            <feColorMatrix values="0 0 0 0 0   0 0 0 0 0   0 0 0 0 0  0 0 0 0.5 0" type="matrix" in="shadowBlurOuter1" result="shadowMatrixOuter1"></feColorMatrix>
            <feMerge>
                <feMergeNode in="shadowMatrixOuter1"></feMergeNode>
                <feMergeNode in="SourceGraphic"></feMergeNode>
            </feMerge>
        </filter>
    </defs>
    <g id="V2.0-Desktop" stroke="none" stroke-width="1" fill="none" fill-rule="evenodd">
        <g id="PROFILE---DELETE-POST" transform="translate(-546.000000, -905.000000)">
            <g id="nav2" transform="translate(494.000000, 25.000000)">
                <g id="editprofile" transform="translate(56.000000, 882.000000)">
                    <g id="gear" filter="url(#filter-1)">
                        <circle id="Oval-2" fill="#5F25E1" cx="16" cy="16" r="16"></circle>
                        <path d="M25.9999994,15.4268834 L25.9999994,16.5900276 C26.000713,17.5135278 25.3373669,18.3038369 24.427726,18.4632308 L23.5655115,18.6153863 C23.4591133,18.9248563 23.3337708,19.2274851 23.1901946,19.5215568 L23.6939984,20.2383782 C24.2248243,20.9936024 24.1349001,22.0213073 23.4809807,22.6728662 L22.6559598,23.4978871 C22.0044009,24.1518065 20.976696,24.2417307 20.2214719,23.7109048 L19.5046504,23.207101 C19.2105999,23.3507241 18.9079681,23.4760678 18.5984799,23.5824179 L18.4463244,24.4277262 C18.2882082,25.3381031 17.4971247,26.0020991 16.5731212,25.9999996 L15.409977,25.9999996 C14.4864768,26.0007132 13.6961677,25.3373671 13.5367738,24.4277262 L13.3846183,23.5655117 C13.0751422,23.4591296 12.7725124,23.3337866 12.4784478,23.1901948 L11.7616264,23.6939986 C11.0064023,24.2248245 9.97869734,24.1349003 9.32713845,23.4809809 L8.50211754,22.65596 C7.84819812,22.0044011 7.75827394,20.9766962 8.28909985,20.2214721 L8.7929036,19.5046506 C8.64924129,19.2106178 8.52389653,18.9079836 8.41758671,18.5984801 L7.57227841,18.4632308 C6.6619015,18.3051145 5.99790548,17.5140311 6.00000496,16.5900276 L6.00000496,15.4268834 C5.99790548,14.5028799 6.6619015,13.7117965 7.57227841,13.5536802 L8.43449288,13.4015247 C8.540851,13.0920395 8.66619454,12.7894082 8.80980977,12.4953542 L8.30600602,11.7785327 C7.77468018,11.0222449 7.86458441,9.99334091 8.51902371,9.3406636 L9.32713845,8.53593009 C9.97869734,7.88201067 11.0064023,7.79208649 11.7616264,8.3229124 L12.4784478,8.82671615 C12.7721035,8.67736286 13.0747416,8.54637027 13.3846183,8.4344931 L13.5367738,7.57227863 C13.6961677,6.6626377 14.4864768,5.9992916 15.409977,6.00000518 L16.5731212,6.00000518 C17.4971247,5.9979057 18.2882082,6.66190172 18.4463244,7.57227863 L18.5984799,8.4344931 C18.9079834,8.54080291 19.2106176,8.66614768 19.5046504,8.80980998 L20.2214719,8.30600624 C20.976696,7.77518032 22.0044009,7.8651045 22.6559598,8.51902393 L23.4640745,9.34404483 C24.1179939,9.99560372 24.2079181,11.0233086 23.6770922,11.7785327 L23.1732885,12.4953542 C23.3168102,12.7894504 23.4421514,13.0920758 23.5486053,13.4015247 L24.4108198,13.5536802 C25.3279177,13.7044393 26.0007114,14.4974769 25.9999994,15.4268834 Z M24.3093828,15.4268834 C24.309356,15.3254721 24.2367424,15.2386205 24.1369399,15.2206282 L22.7641592,14.9805606 C22.4385837,14.9260983 22.1744962,14.6870992 22.0879126,14.3685574 C21.9460686,13.8407497 21.7357744,13.33377 21.4623845,12.8605274 C21.2975318,12.5753359 21.3133673,12.2203555 21.5029593,11.9509756 L22.3043115,10.8081188 C22.363771,10.7243344 22.3537496,10.6098051 22.2806429,10.5376202 L21.455622,9.71259925 C21.382819,9.64081856 21.2692862,9.63088444 21.1851233,9.68893062 L20.049029,10.4936641 C19.7796491,10.683256 19.4246687,10.6990916 19.1394772,10.5342389 C18.6662518,10.2608142 18.1592674,10.0505179 17.6314472,9.90871078 C17.3129054,9.82212715 17.0739063,9.55803971 17.019444,9.23246414 L16.7827577,7.85968345 C16.7647654,7.75988101 16.6779138,7.68726737 16.5765025,7.68724056 L15.409977,7.68724056 C15.3074896,7.68755179 15.2202516,7.76191857 15.2037218,7.86306469 L14.9636542,9.23584537 C14.9091919,9.56142094 14.6701928,9.82550839 14.351651,9.91209201 C13.8238433,10.053936 13.3168636,10.2642302 12.843621,10.5376202 C12.5584295,10.7024728 12.2034491,10.6866373 11.9340693,10.4970454 L10.7912124,9.69569309 C10.707428,9.63623365 10.5928987,9.64625496 10.5207138,9.71936172 L9.69569287,10.5443826 C9.62258611,10.6165675 9.6125648,10.7310968 9.67202424,10.8148813 L10.4733765,11.9543569 C10.6629684,12.2237367 10.678804,12.5787171 10.5139513,12.8639086 C10.2405962,13.3371684 10.0303039,13.8441435 9.88842316,14.3719386 C9.80183953,14.6904804 9.53775209,14.9294795 9.21217652,14.9839418 L7.83939583,15.2240094 C7.73959339,15.2420017 7.66697975,15.3288533 7.66695294,15.4302646 L7.66695294,16.5934088 C7.66726417,16.6958963 7.74163095,16.7831342 7.84277707,16.7996641 L9.21555775,17.0397316 C9.54113332,17.0941939 9.80522077,17.3331931 9.89180439,17.6517348 C10.0335747,18.1795675 10.2438729,18.6865566 10.5173325,19.1597649 C10.6821852,19.4449563 10.6663496,19.7999368 10.4767577,20.0693166 L9.67540547,21.2121734 C9.61594603,21.2959579 9.62596734,21.4104871 9.6990741,21.4826721 L10.524095,22.307693 C10.5962799,22.3807997 10.7108092,22.390821 10.7945937,22.3313616 L11.9374505,21.5300093 C12.2068303,21.3404174 12.5618107,21.3245819 12.8470022,21.4894345 C13.3142842,21.758728 13.8143145,21.9666951 14.3347448,22.1082002 C14.6532866,22.1947838 14.8922858,22.4588713 14.946748,22.7844469 L15.1868156,24.1572275 C15.2048079,24.25703 15.2916595,24.3296436 15.3930708,24.3296704 L16.5562151,24.3296704 C16.6576264,24.3296436 16.744478,24.25703 16.7624703,24.1572275 L17.0025378,22.7844469 C17.0570001,22.4588713 17.2959993,22.1947838 17.6145411,22.1082002 C18.1423112,21.9662461 18.6492769,21.7559577 19.1225711,21.4826721 C19.4077626,21.3178194 19.762743,21.333655 20.0321228,21.5232469 L21.1749796,22.3245991 C21.2587641,22.3840586 21.3732934,22.3740373 21.4454783,22.3009305 L22.2704992,21.4759096 C22.3436059,21.4037247 22.3536273,21.2891954 22.2941678,21.2054109 L21.5063405,20.0659354 C21.3181738,19.7973251 21.3023586,19.4441172 21.4657657,19.1597649 C21.7379742,18.6907171 21.9482353,18.1883635 22.0912938,17.6652598 C22.1778775,17.346718 22.4419649,17.1077188 22.7675405,17.0532566 L24.1403212,16.7996641 C24.2401236,16.7816717 24.3127372,16.6948201 24.3127641,16.5934088 L24.3093828,15.4268834 Z M19.9814043,16.0084555 C19.9814043,18.2119917 18.1950853,19.9983107 15.9915491,19.9983107 C13.7880129,19.9983107 12.0016939,18.2119917 12.0016939,16.0084555 C12.0016939,13.8049193 13.7880129,12.0186003 15.9915491,12.0186003 C18.1943126,12.0204647 19.9795399,13.805692 19.9814043,16.0084555 Z M18.2907877,16.0084555 C18.2907877,14.7386211 17.2613835,13.7092169 15.9915491,13.7092169 C14.7217147,13.7092169 13.6923105,14.7386211 13.6923105,16.0084555 C13.6923105,17.2782899 14.7217147,18.3076941 15.9915491,18.3076941 C17.2613835,18.3076941 18.2907877,17.2782899 18.2907877,16.0084555 Z" id="Shape" fill="#FFFFFF" fill-rule="nonzero"></path>
                    </g>
                </g>
            </g>
        </g>
    </g>
</svg>