<?xml version="1.0" encoding="UTF-8"?>
<svg width="32px" height="32px" viewBox="0 0 32 32" version="1.1" xmlns="http://www.w3.org/2000/svg" xmlns:xlink="http://www.w3.org/1999/xlink">
    <!-- Generator: Sketch 50.2 (55047) - http://www.bohemiancoding.com/sketch -->
    <title>heart-like</title>
    <desc>Created with Sketch.</desc>
    <defs></defs>
    <g id="V2.0-Desktop" stroke="none" stroke-width="1" fill="none" fill-rule="evenodd">
        <g id="DASHBOARD" transform="translate(-552.000000, -780.000000)" fill="#5F25E1">
            <g id="post-3" transform="translate(494.000000, 539.000000)">
                <g id="Group-12" transform="translate(33.000000, 43.000000)">
                    <g id="Group-14" transform="translate(22.000000, 198.000000)">
                        <g id="heart-like">
                            <path d="M19,3.2008 C12.0159167,3.2008 6.33333333,8.9416 6.33333333,15.9976 C6.33333333,23.0552 12.0159167,28.7976 19,28.7976 C25.9840833,28.7976 31.6666667,23.0552 31.6666667,15.9976 C31.6666667,8.9416 25.9840833,3.2008 19,3.2008 M19,31.9976 C10.2695,31.9976 3.16666667,24.82 3.16666667,15.9976 C3.16666667,7.1784 10.2695,0.0008 19,0.0008 C27.7305,0.0008 34.8333333,7.1784 34.8333333,15.9976 C34.8333333,24.82 27.7305,31.9976 19,31.9976" id="Fill-400"></path>
                            <path d="M15.8333333,11.2008 C12.9754167,11.2008 12.6666667,13.4376 12.6666667,14.3976 C12.6666667,17.1784 16.7485,20.5512 19,22.0952 C21.2515,20.5512 25.3333333,17.1784 25.3333333,14.3976 C25.3333333,13.4376 25.0245833,11.2008 22.1666667,11.2008 C21.45575,11.2008 20.5833333,12.0824 20.5833333,12.7976 C20.5833333,13.6808 19.874,14.3976 19,14.3976 C18.126,14.3976 17.4166667,13.6808 17.4166667,12.7976 C17.4166667,12.0824 16.54425,11.2008 15.8333333,11.2008 M19,25.5976 C18.7181667,25.5976 18.4363333,25.5224 18.1845833,25.3704 C17.2963333,24.8312 9.5,19.9432 9.5,14.3976 C9.5,10.572 12.0444167,8.0008 15.8333333,8.0008 C16.9970833,8.0008 18.1323333,8.532 19,9.3528 C19.8676667,8.532 21.0029167,8.0008 22.1666667,8.0008 C25.9555833,8.0008 28.5,10.572 28.5,14.3976 C28.5,19.9432 20.7036667,24.8312 19.8154167,25.3704 C19.5636667,25.5224 19.2818333,25.5976 19,25.5976" id="Fill-401"></path>
                        </g>
                    </g>
                </g>
            </g>
        </g>
    </g>
</svg>