<?xml version="1.0" encoding="UTF-8"?>
<svg width="52px" height="52px" viewBox="0 0 52 52" version="1.1" xmlns="http://www.w3.org/2000/svg" xmlns:xlink="http://www.w3.org/1999/xlink">
    <!-- Generator: Sketch 50.2 (55047) - http://www.bohemiancoding.com/sketch -->
    <title>Group 6</title>
    <desc>Created with Sketch.</desc>
    <defs>
        <circle id="path-1" cx="22" cy="22" r="22"></circle>
        <filter x="-15.9%" y="-11.4%" width="131.8%" height="131.8%" filterUnits="objectBoundingBox" id="filter-2">
            <feOffset dx="0" dy="2" in="SourceAlpha" result="shadowOffsetOuter1"></feOffset>
            <feGaussianBlur stdDeviation="2" in="shadowOffsetOuter1" result="shadowBlurOuter1"></feGaussianBlur>
            <feColorMatrix values="0 0 0 0 0   0 0 0 0 0   0 0 0 0 0  0 0 0 0.5 0" type="matrix" in="shadowBlurOuter1"></feColorMatrix>
        </filter>
    </defs>
    <g id="Symbols" stroke="none" stroke-width="1" fill="none" fill-rule="evenodd">
        <g id="nav-palfinder" transform="translate(-106.000000, -924.000000)">
            <g id="social">
                <g transform="translate(110.000000, 925.000000)">
                    <g id="Group-6" transform="translate(0.000000, 1.000000)">
                        <g id="Oval-3">
                            <use fill="black" fill-opacity="1" filter="url(#filter-2)" xlink:href="#path-1"></use>
                            <use fill="#FFFFFF" fill-rule="evenodd" xlink:href="#path-1"></use>
                        </g>
                        <g id="instagram" transform="translate(12.222222, 12.222222)" fill="#5F25E1" fill-rule="nonzero">
                            <path d="M9.56773823,4.6956687 C6.94817989,4.6956687 4.83523424,6.79429639 4.83523424,9.39610382 C4.83523424,11.9979113 6.94817989,14.0965389 9.56773823,14.0965389 C12.1872966,14.0965389 14.3002422,11.9979113 14.3002422,9.39610382 C14.3002422,6.79429639 12.1872966,4.6956687 9.56773823,4.6956687 Z M9.56773823,12.4520003 C7.87491044,12.4520003 6.49099282,11.0815514 6.49099282,9.39610382 C6.49099282,7.71065624 7.87079163,6.34020736 9.56773823,6.34020736 C11.2646848,6.34020736 12.6444836,7.71065624 12.6444836,9.39610382 C12.6444836,11.0815514 11.260566,12.4520003 9.56773823,12.4520003 Z M15.597665,4.50339677 C15.597665,5.1129397 15.1034087,5.59975587 14.4938259,5.59975587 C13.8801244,5.59975587 13.3899869,5.10884881 13.3899869,4.50339677 C13.3899869,3.89794472 13.8842432,3.40703766 14.4938259,3.40703766 C15.1034087,3.40703766 15.597665,3.89794472 15.597665,4.50339677 Z M18.7320736,5.61611944 C18.662054,4.14748915 18.3243122,2.84658543 17.2410672,1.77477168 C16.1619409,0.702957926 14.8521618,0.367504767 13.3735117,0.293868708 C11.8495548,0.207959972 7.28180289,0.207959972 5.75784599,0.293868708 C4.28331472,0.363413875 2.97353554,0.698867034 1.89029051,1.77068079 C0.807045467,2.84249454 0.47342247,4.14339826 0.399284027,5.61202855 C0.312789176,7.12565866 0.312789176,11.6624581 0.399284027,13.1760882 C0.469303668,14.6447185 0.807045467,15.9456222 1.89029051,17.017436 C2.97353554,18.0892497 4.27919591,18.4247029 5.75784599,18.4983389 C7.28180289,18.5842477 11.8495548,18.5842477 13.3735117,18.4983389 C14.8521618,18.4287938 16.1619409,18.0933406 17.2410672,17.017436 C18.3201934,15.9456222 18.6579352,14.6447185 18.7320736,13.1760882 C18.8185685,11.6624581 18.8185685,7.12974955 18.7320736,5.61611944 Z M16.7632861,14.8001724 C16.4420195,15.6019873 15.8200803,16.219712 15.0086762,16.5428925 C13.7936295,17.0215269 10.9104678,16.9110728 9.56773823,16.9110728 C8.22500864,16.9110728 5.33772814,17.017436 4.12680022,16.5428925 C3.31951495,16.2238029 2.69757578,15.6060782 2.37219039,14.8001724 C1.89029051,13.5933592 2.00149817,10.7297347 2.00149817,9.39610382 C2.00149817,8.06247297 1.89440931,5.19475755 2.37219039,3.99203524 C2.69345698,3.19022038 3.31539615,2.57249566 4.12680022,2.24931517 C5.34184694,1.77068079 8.22500864,1.88113488 9.56773823,1.88113488 C10.9104678,1.88113488 13.7977483,1.77477168 15.0086762,2.24931517 C15.8159615,2.56840476 16.4379007,3.18612948 16.7632861,3.99203524 C17.245186,5.19884844 17.1339783,8.06247297 17.1339783,9.39610382 C17.1339783,10.7297347 17.245186,13.5974501 16.7632861,14.8001724 Z" id="Shape"></path>
                        </g>
                    </g>
                </g>
            </g>
        </g>
    </g>
</svg>