<?xml version="1.0" encoding="UTF-8"?>
<svg width="46px" height="46px" viewBox="0 0 46 46" version="1.1" xmlns="http://www.w3.org/2000/svg" xmlns:xlink="http://www.w3.org/1999/xlink">
    <!-- Generator: Sketch 50.2 (55047) - http://www.bohemiancoding.com/sketch -->
    <title>loction-icon copy</title>
    <desc>Created with Sketch.</desc>
    <defs></defs>
    <g id="V2.0-Desktop" stroke="none" stroke-width="1" fill="none" fill-rule="evenodd">
        <g id="PROFILE-MY-INFO-PREMIUM-USER" transform="translate(-1180.000000, -576.000000)">
            <g id="RECENT-ACTIVITIES" transform="translate(1162.000000, 164.000000)">
                <g id="activities" transform="translate(22.000000, 78.000000)">
                    <g id="rachel" transform="translate(0.000000, 333.000000)">
                        <g id="loction-icon" transform="translate(0.000000, 3.000000)">
                            <g>
                                <circle id="Oval" fill="#5F25E1" cx="19" cy="19" r="19"></circle>
                                <g id="Group-13" transform="translate(14.000000, 10.000000)" fill="#FFFFFF">
                                    <path d="M5.0015,2.0029 C3.3475,2.0029 2.0015,3.3489 2.0015,5.0029 C2.0015,6.1859 3.5945,10.2639 5.0015,13.5299 C6.4095,10.2639 8.0015,6.1849 8.0015,5.0029 C8.0015,3.3489 6.6555,2.0029 5.0015,2.0029 M5.0015,17.0029 C4.6095,17.0029 4.2535,16.7739 4.0915,16.4169 C3.4085,14.9169 0.0015,7.3129 0.0015,5.0029 C0.0015,2.2459 2.2445,0.0029 5.0015,0.0029 C7.7585,0.0029 10.0015,2.2459 10.0015,5.0029 C10.0015,7.3129 6.5955,14.9169 5.9115,16.4169 C5.7495,16.7739 5.3945,17.0029 5.0015,17.0029" id="Fill-602"></path>
                                    <path d="M6.5015,5.0029 C6.5015,5.8329 5.8305,6.5029 5.0015,6.5029 C4.1725,6.5029 3.5015,5.8329 3.5015,5.0029 C3.5015,4.1739 4.1725,3.5029 5.0015,3.5029 C5.8305,3.5029 6.5015,4.1739 6.5015,5.0029" id="Fill-603"></path>
                                </g>
                            </g>
                        </g>
                    </g>
                </g>
            </g>
        </g>
    </g>
</svg>