<?xml version="1.0" encoding="UTF-8"?>
<svg width="163px" height="163px" viewBox="0 0 163 163" version="1.1" xmlns="http://www.w3.org/2000/svg" xmlns:xlink="http://www.w3.org/1999/xlink">
    <!-- Generator: Sketch 50.2 (55047) - http://www.bohemiancoding.com/sketch -->
    <title>logo</title>
    <desc>Created with Sketch.</desc>
    <defs>
        <filter x="-4.5%" y="-3.2%" width="109.0%" height="109.0%" filterUnits="objectBoundingBox" id="filter-1">
            <feOffset dx="0" dy="2" in="SourceAlpha" result="shadowOffsetOuter1"></feOffset>
            <feGaussianBlur stdDeviation="2" in="shadowOffsetOuter1" result="shadowBlurOuter1"></feGaussianBlur>
            <feColorMatrix values="0 0 0 0 0.2   0 0 0 0 0.2   0 0 0 0 0.2  0 0 0 1 0" type="matrix" in="shadowBlurOuter1" result="shadowMatrixOuter1"></feColorMatrix>
            <feMerge>
                <feMergeNode in="shadowMatrixOuter1"></feMergeNode>
                <feMergeNode in="SourceGraphic"></feMergeNode>
            </feMerge>
        </filter>
    </defs>
    <g id="Symbols" stroke="none" stroke-width="1" fill="none" fill-rule="evenodd">
        <g id="nav-palfinder" transform="translate(-144.000000, -51.000000)" fill-rule="nonzero">
            <g id="FULLNAV">
                <g>
                    <g id="NAV+BG">
                        <g id="Group-6">
                            <g id="logo" filter="url(#filter-1)" transform="translate(148.000000, 53.000000)">
                                <circle id="Oval" fill="#FFFFFF" cx="77.5" cy="77.5" r="77.5"></circle>
                                <path d="M110.846967,45 L93.2164719,45 C88.5770729,45 83.458542,45.6460604 79.2164719,49.4593925 C78.3927704,50.1894447 77.6519823,51.0099508 77.0077908,51.9057553 C76.3635992,51.0099508 75.6228112,50.1894447 74.7991096,49.4593925 C70.5570395,45.6460604 65.4501948,45 60.7991096,45 L43.1686144,45 C42.5232065,45 42,45.5291178 42,46.1818178 L42,108.818161 C42,109.47086 42.5232065,109.999978 43.1686144,109.999978 L53.9977741,109.999978 C54.1487332,110.000916 54.2983668,109.971454 54.4379521,109.913312 L76.2520868,100.931496 C76.8137812,100.699005 77.4433139,100.699005 78.0050083,100.931496 L99.5581525,109.909372 C99.7009834,109.965704 99.8528159,109.995079 100.006121,109.996039 L110.831386,109.996039 C111.476794,109.996039 112,109.466921 112,108.814221 L112,46.1778784 C111.99793,45.5328177 111.484768,45.0085975 110.846967,45 Z M88.6432944,57.2830262 C90.4819143,55.5024207 93.1229827,55.2621178 95.5225376,55.2621178 L98.5141903,55.2621178 C99.1595982,55.2621178 99.6828047,55.7912356 99.6828047,56.4439356 L99.6828047,68.7230224 C99.6828047,69.3757223 99.1595982,69.9048402 98.5141903,69.9048402 L95.3160824,69.9048402 C93.6371731,69.9048402 90.6766834,69.8221129 88.6939343,67.8799924 C87.3553937,66.4380947 86.6355623,64.519045 86.6917084,62.5421154 C86.65665,60.2769646 87.4590985,58.4175713 88.6588759,57.2830262 L88.6432944,57.2830262 Z M54.3016138,56.4439356 C54.3016138,55.7912356 54.8248203,55.2621178 55.4702282,55.2621178 L58.4618809,55.2621178 C60.8614357,55.2621178 63.5025042,55.5024207 65.3411241,57.2830262 C66.5409015,58.4175713 67.34335,60.2769646 67.34335,62.5421154 C67.3994961,64.519045 66.6796648,66.4380947 65.3411241,67.8799924 C63.3427935,69.8221129 60.3823038,69.9048402 58.7189761,69.9048402 L55.4858097,69.9048402 C54.8404018,69.9048402 54.3171953,69.3757223 54.3171953,68.7230224 L54.3016138,56.4439356 Z M98.1285476,96.3578616 L84.245409,90.5748333 L78.0478575,87.9945311 C77.4864959,87.7603352 76.8562976,87.7603352 76.294936,87.9945311 L67.0317195,91.8039238 L55.8792432,96.401195 C55.5182382,96.5496463 55.1078147,96.5063402 54.7848869,96.2857232 C54.4619591,96.0651063 54.2690268,95.6962134 54.2704508,95.3021044 L54.3171953,81.2936243 C54.3171953,80.6409243 54.8404018,80.1118065 55.4858097,80.1118065 L61.8391764,80.1118065 C65.5982193,80.1118065 71.1880913,79.7178672 75.4379521,75.3293838 C76.0079456,74.7252702 76.5290072,74.0758059 76.9961046,73.3872633 C77.463202,74.0758059 77.9842636,74.7252702 78.5542571,75.3293838 C82.7924318,79.706049 88.39399,80.1118065 92.1530328,80.1118065 L98.5063996,80.1118065 C99.1518074,80.1118065 99.6750139,80.6409243 99.6750139,81.2936243 L99.7217585,95.2705893 C99.7172962,95.6584908 99.5248774,96.0194783 99.2069092,96.2364728 C98.8889409,96.4534674 98.4859162,96.498835 98.1285476,96.3578616 Z" id="Shape" fill="#5F25E1"></path>
                            </g>
                        </g>
                    </g>
                </g>
            </g>
        </g>
    </g>
</svg>