<?xml version="1.0" encoding="UTF-8"?>
<svg width="38px" height="39px" viewBox="0 0 38 39" version="1.1" xmlns="http://www.w3.org/2000/svg" xmlns:xlink="http://www.w3.org/1999/xlink">
    <!-- Generator: Sketch 50.2 (55047) - http://www.bohemiancoding.com/sketch -->
    <title>pals-icon</title>
    <desc>Created with Sketch.</desc>
    <defs></defs>
    <g id="V2.0-Desktop" stroke="none" stroke-width="1" fill="none" fill-rule="evenodd">
        <g id="PROFILE---DELETE-POST" transform="translate(-1184.000000, -337.000000)">
            <g id="nav2" transform="translate(494.000000, 25.000000)">
                <g id="RECENT-ACTIVITIES" transform="translate(668.000000, 139.000000)">
                    <g id="activities" transform="translate(22.000000, 78.000000)">
                        <g id="dave" transform="translate(0.000000, 92.000000)">
                            <g id="pals-icon" transform="translate(0.000000, 3.000000)">
                                <g transform="translate(0.000000, 0.500000)">
                                    <circle id="Oval" fill="#5F25E1" cx="19" cy="19" r="19"></circle>
                                    <g id="pals" transform="translate(8.000000, 11.500000)" fill="#FFFFFF" fill-rule="nonzero">
                                        <path d="M22,15.2727273 C22,15.6743889 21.6822666,16 21.2903226,16 C20.8983786,16 20.5806452,15.6743889 20.5806452,15.2727273 C20.5806452,12.4610958 18.3565113,10.1818182 15.6129032,10.1818182 C12.8692951,10.1818182 10.6451613,12.4610958 10.6451613,15.2727273 C10.6451613,15.6743889 10.3274279,16 9.93548387,16 C9.54353985,16 9.22580645,15.6743889 9.22580645,15.2727273 C9.22580645,11.6577725 12.0854071,8.72727273 15.6129032,8.72727273 C19.1403994,8.72727273 22,11.6577725 22,15.2727273 Z M15.6129032,8 C13.4572112,8 11.7096774,6.20913898 11.7096774,4 C11.7096774,1.79086102 13.4572112,0 15.6129032,0 C17.7685953,0 19.516129,1.79086102 19.516129,4 C19.516129,6.20913898 17.7685953,8 15.6129032,8 Z M15.6129032,6.54545455 C16.9847073,6.54545455 18.0967742,5.40581571 18.0967742,4 C18.0967742,2.59418429 16.9847073,1.45454545 15.6129032,1.45454545 C14.2410992,1.45454545 13.1290323,2.59418429 13.1290323,4 C13.1290323,5.40581571 14.2410992,6.54545455 15.6129032,6.54545455 Z" id="Shape"></path>
                                        <path d="M12.7741935,15.2727273 C12.7741935,15.6743889 12.4564601,16 12.0645161,16 C11.6725721,16 11.3548387,15.6743889 11.3548387,15.2727273 C11.3548387,12.4610958 9.13070489,10.1818182 6.38709677,10.1818182 C3.64348866,10.1818182 1.41935484,12.4610958 1.41935484,15.2727273 C1.41935484,15.6743889 1.10162144,16 0.709677419,16 C0.317733403,16 0,15.6743889 0,15.2727273 C0,11.6577725 2.85960063,8.72727273 6.38709677,8.72727273 C9.91459292,8.72727273 12.7741935,11.6577725 12.7741935,15.2727273 Z M6.38709677,8 C4.2314047,8 2.48387097,6.20913898 2.48387097,4 C2.48387097,1.79086102 4.2314047,0 6.38709677,0 C8.54278885,0 10.2903226,1.79086102 10.2903226,4 C10.2903226,6.20913898 8.54278885,8 6.38709677,8 Z M6.38709677,6.54545455 C7.75890081,6.54545455 8.87096774,5.40581571 8.87096774,4 C8.87096774,2.59418429 7.75890081,1.45454545 6.38709677,1.45454545 C5.01529274,1.45454545 3.90322581,2.59418429 3.90322581,4 C3.90322581,5.40581571 5.01529274,6.54545455 6.38709677,6.54545455 Z" id="Shape"></path>
                                    </g>
                                </g>
                            </g>
                        </g>
                    </g>
                </g>
            </g>
        </g>
    </g>
</svg>