<?xml version="1.0" encoding="UTF-8"?>
<svg width="60px" height="60px" viewBox="0 0 60 60" version="1.1" xmlns="http://www.w3.org/2000/svg" xmlns:xlink="http://www.w3.org/1999/xlink">
    <!-- Generator: Sketch 50.2 (55047) - http://www.bohemiancoding.com/sketch -->
    <title>Shape</title>
    <desc>Created with Sketch.</desc>
    <defs></defs>
    <g id="V2.0-Desktop" stroke="none" stroke-width="1" fill="none" fill-rule="evenodd">
        <g id="CREDITS" transform="translate(-915.000000, -920.000000)" fill="#C9242E" fill-rule="nonzero">
            <path d="M945,920 C928.431429,920 915,933.431429 915,950 C915,962.711429 922.911429,973.571429 934.071429,977.942857 C933.805714,975.568571 933.574286,971.917143 934.174286,969.328571 C934.722857,966.988571 937.688571,954.414286 937.688571,954.414286 C937.688571,954.414286 936.788571,952.614286 936.788571,949.957143 C936.788571,945.782857 939.205714,942.671429 942.214286,942.671429 C944.777143,942.671429 946.011429,944.591429 946.011429,946.897143 C946.011429,949.468571 944.374286,953.317143 943.525714,956.882857 C942.822857,959.865714 945.025714,962.3 947.965714,962.3 C953.297143,962.3 957.394286,956.677143 957.394286,948.56 C957.394286,941.377143 952.234286,936.354286 944.862857,936.354286 C936.325714,936.354286 931.32,942.757143 931.32,949.374286 C931.32,951.954286 932.314286,954.714286 933.548571,956.222857 C933.797143,956.522857 933.831429,956.78 933.754286,957.08 C933.522857,958.031429 933.017143,960.062857 932.922857,960.482857 C932.794286,961.031429 932.485714,961.151429 931.92,960.885714 C928.174286,959.145714 925.834286,953.66 925.834286,949.262857 C925.834286,939.8 932.708571,931.108571 945.66,931.108571 C956.065714,931.108571 964.157143,938.522857 964.157143,948.431429 C964.157143,958.785714 957.642857,967.108571 948.591429,967.108571 C945.548571,967.108571 942.694286,965.531429 941.717143,963.662857 C941.717143,963.662857 940.217143,969.388571 939.848571,970.794286 C939.171429,973.4 937.345714,976.665714 936.12,978.662857 C938.922857,979.528571 941.905714,980 945,980 C961.568571,980 975,966.568571 975,950 C975,933.431429 961.568571,920 945,920 Z" id="Shape"></path>
        </g>
    </g>
</svg>