<?xml version="1.0" encoding="UTF-8"?>
<svg width="46px" height="46px" viewBox="0 0 46 46" version="1.1" xmlns="http://www.w3.org/2000/svg" xmlns:xlink="http://www.w3.org/1999/xlink">
    <!-- Generator: Sketch 50.2 (55047) - http://www.bohemiancoding.com/sketch -->
    <title>running</title>
    <desc>Created with Sketch.</desc>
    <defs>
        <polygon id="path-1" points="0 -4.99999999e-05 24.6717949 -4.99999999e-05 24.6717949 9.86445 0 9.86445"></polygon>
        <polygon id="path-3" points="0 9.86445 24.6719388 9.86445 24.6719388 -5e-05 0 -5e-05"></polygon>
    </defs>
    <g id="V2.0-Desktop" stroke="none" stroke-width="1" fill="none" fill-rule="evenodd">
        <g id="PROFILE-MY-INFO-PREMIUM-USER" transform="translate(-1180.000000, -249.000000)">
            <g id="RECENT-ACTIVITIES" transform="translate(1162.000000, 164.000000)">
                <g id="activities" transform="translate(22.000000, 78.000000)">
                    <g id="lisa">
                        <g id="running" transform="translate(0.000000, 9.000000)">
                            <circle id="Oval" fill="#5F25E1" cx="19" cy="19" r="19"></circle>
                            <g stroke-width="1" transform="translate(7.000000, 14.000000)">
                                <mask id="mask-2" fill="white">
                                    <use xlink:href="#path-1"></use>
                                </mask>
                                <g id="Clip-2"></g>
                                <path d="M1.02040816,8.86445 L22.8020408,8.86445 C22.955102,8.86445 23.177551,8.71945 23.4112245,8.48695 C23.5581633,8.33945 23.6581633,8.06295 23.6530612,7.82395 C23.6403061,7.19595 23.4841837,6.37045 22.8188776,6.01945 C21.2056122,5.16795 14.4535714,2.08045 11.8938776,1.08345 C10.725,2.11745 8.50714286,2.92145 6.73520408,2.92145 C5.47653061,2.92145 4.47653061,2.53995 3.84438776,1.81795 C3.48826531,1.41195 2.85765306,1.16945 2.37704082,1.16945 C1.61020408,1.16945 1.02040816,1.78645 1.02040816,2.81845 L1.02040816,8.86445 Z M22.8020408,9.86445 L0.773979592,9.86445 C0.491836735,9.86445 0,9.61845 0,9.34195 L0,2.81845 C0,0.98845 1.25969388,0.16895 2.37704082,0.16895 C3.15102041,0.16895 4.00561224,0.54145 4.55306122,1.16645 C5.0994898,1.78995 6.03826531,1.92045 6.70204082,1.92045 C8.50612245,1.92045 10.5836735,1.01145 11.3785714,0.16195 C11.519898,0.01045 11.7489796,-0.03955 11.9433673,0.03145 C14.3081633,0.90845 21.5535714,4.21545 23.2979592,5.13545 C24.1683673,5.59495 24.6443878,6.51495 24.6714286,7.79795 C24.6816327,8.30795 24.4780612,8.84695 24.1387755,9.18745 C23.6938776,9.62945 23.2459184,9.86445 22.8020408,9.86445 Z" id="Fill-1" fill="#FFFFFF" mask="url(#mask-2)"></path>
                                <mask id="mask-4" fill="white">
                                    <use xlink:href="#path-3"></use>
                                </mask>
                                <g id="Clip-5"></g>
                                <polygon id="Fill-4" fill="#FFFFFF" mask="url(#mask-4)" points="1.02040816 7.86445 23.9795918 7.86445 23.9795918 6.86445 1.02040816 6.86445"></polygon>
                                <path d="M10.7501531,7.61005 C10.6787245,7.61005 10.6067857,7.59555 10.537398,7.56405 C10.2812755,7.44905 10.1690306,7.15155 10.287398,6.90105 L13.0634184,0.98505 C13.1807653,0.73455 13.4822959,0.62455 13.739949,0.73955 C13.9960714,0.85505 14.1083163,1.15155 13.9904592,1.40305 L11.2139286,7.31855 C11.1282143,7.50155 10.9435204,7.61005 10.7501531,7.61005" id="Fill-6" fill="#FFFFFF" mask="url(#mask-4)"></path>
                                <path d="M12.7909694,7.61005 C12.7180102,7.61005 12.6445408,7.59505 12.5741327,7.56205 C12.3190306,7.44505 12.2098469,7.14705 12.3297449,6.89705 L14.8103571,1.73305 C14.9297449,1.48305 15.2333163,1.37705 15.4889286,1.49355 C15.7440306,1.61055 15.8532143,1.90855 15.7338265,2.15855 L13.2527041,7.32255 C13.1659694,7.50355 12.9828061,7.61005 12.7909694,7.61005" id="Fill-7" fill="#FFFFFF" mask="url(#mask-4)"></path>
                                <path d="M14.8328061,7.61005 C14.7629082,7.61005 14.6919898,7.59555 14.6236224,7.56605 C14.3669898,7.45205 14.2521939,7.15605 14.3680102,6.90405 L16.0986224,3.14105 C16.2144388,2.88905 16.5144388,2.77655 16.7741327,2.89005 C17.0307653,3.00355 17.145051,3.29955 17.0297449,3.55155 L15.2986224,7.31555 C15.2134184,7.50005 15.0277041,7.61005 14.8328061,7.61005" id="Fill-8" fill="#FFFFFF" mask="url(#mask-4)"></path>
                            </g>
                        </g>
                    </g>
                </g>
            </g>
        </g>
    </g>
</svg>