<?xml version="1.0" encoding="UTF-8"?>
<svg width="46px" height="46px" viewBox="0 0 46 46" version="1.1" xmlns="http://www.w3.org/2000/svg" xmlns:xlink="http://www.w3.org/1999/xlink">
    <!-- Generator: Sketch 50.2 (55047) - http://www.bohemiancoding.com/sketch -->
    <title>soccer</title>
    <desc>Created with Sketch.</desc>
    <defs></defs>
    <g id="V2.0-Desktop" stroke="none" stroke-width="1" fill="none" fill-rule="evenodd">
        <g id="PROFILE-MY-INFO-PREMIUM-USER" transform="translate(-1180.000000, -415.000000)">
            <g id="RECENT-ACTIVITIES" transform="translate(1162.000000, 164.000000)">
                <g id="activities" transform="translate(22.000000, 78.000000)">
                    <g id="sean2" transform="translate(0.000000, 172.000000)">
                        <g id="soccer" transform="translate(0.000000, 3.000000)">
                            <g id="Group-13">
                                <g id="loction-icon"></g>
                                <circle id="Oval" fill="#5F25E1" cx="19" cy="19" r="19"></circle>
                                <g id="Group" transform="translate(11.000000, 9.000000)" fill="#FFFFFF">
                                    <path d="M1,19 L16,19 L16,1 L1,1 L1,19 Z M17,19.5652174 C17,19.8056522 16.7889167,20 16.5277778,20 L0.472222222,20 C0.211083333,20 0,19.8056522 0,19.5652174 L0,0.434782609 C0,0.194347826 0.211083333,0 0.472222222,0 L16.5277778,0 C16.7889167,0 17,0.194347826 17,0.434782609 L17,19.5652174 Z" id="Fill-1"></path>
                                    <path d="M5.875,2.25 L11.125,2.25 L11.125,0.75 L5.875,0.75 L5.875,2.25 Z M12,2.625 C12,2.832375 11.8044375,3 11.5625,3 L5.4375,3 C5.1955625,3 5,2.832375 5,2.625 L5,0.375 C5,0.167625 5.1955625,0 5.4375,0 L11.5625,0 C11.8044375,0 12,0.167625 12,0.375 L12,2.625 Z" id="Fill-3"></path>
                                    <path d="M5.875,19.25 L11.125,19.25 L11.125,17.75 L5.875,17.75 L5.875,19.25 Z M12,19.625 C12,19.832375 11.8044375,20 11.5625,20 L5.4375,20 C5.1955625,20 5,19.832375 5,19.625 L5,17.375 C5,17.167625 5.1955625,17 5.4375,17 L11.5625,17 C11.8044375,17 12,17.167625 12,17.375 L12,19.625 Z" id="Fill-4"></path>
                                    <polygon id="Fill-5" points="0 11 16 11 16 10 0 10"></polygon>
                                    <path d="M8.49955203,7.896 C7.06380392,7.896 5.89594266,9.063936 5.89594266,10.499776 C5.89594266,11.936512 7.06380392,13.104 8.49955203,13.104 C9.93574811,13.104 11.1040573,11.936512 11.1040573,10.499776 C11.1040573,9.063936 9.93574811,7.896 8.49955203,7.896 M8.49955203,14 C6.56969154,14 5,12.42976 5,10.499776 C5,8.57024 6.56969154,7 8.49955203,7 C10.4298605,7 12,8.57024 12,10.499776 C12,12.42976 10.4298605,14 8.49955203,14" id="Fill-6"></path>
                                </g>
                            </g>
                        </g>
                    </g>
                </g>
            </g>
        </g>
    </g>
</svg>