<?xml version="1.0" encoding="UTF-8"?>
<svg width="46px" height="46px" viewBox="0 0 46 46" version="1.1" xmlns="http://www.w3.org/2000/svg" xmlns:xlink="http://www.w3.org/1999/xlink">
    <!-- Generator: Sketch 50.2 (55047) - http://www.bohemiancoding.com/sketch -->
    <title>pingpong</title>
    <desc>Created with Sketch.</desc>
    <defs></defs>
    <g id="V2.0-Desktop" stroke="none" stroke-width="1" fill="none" fill-rule="evenodd">
        <g id="PROFILE-MY-INFO-PREMIUM-USER" transform="translate(-1180.000000, -496.000000)">
            <g id="RECENT-ACTIVITIES" transform="translate(1162.000000, 164.000000)">
                <g id="activities" transform="translate(22.000000, 78.000000)">
                    <g id="sean" transform="translate(0.000000, 253.000000)">
                        <g id="pingpong" transform="translate(0.000000, 3.000000)">
                            <circle id="Oval" fill="#5F25E1" cx="19" cy="19" r="19"></circle>
                            <g stroke-width="1" transform="translate(7.000000, 9.000000)" fill="#FFFFFF">
                                <path d="M1.28752,16.0513158 L3.55098667,18.285 L7.82298667,14.0697368 C7.98725333,13.9065789 8.23845333,13.8686842 8.44485333,13.9739474 C9.42192,14.4723684 10.5232533,14.7355263 11.6304533,14.7355263 L11.6309867,14.7355263 C13.48112,14.7355263 15.2213867,14.0244737 16.5301867,12.7328947 C17.8400533,11.4407895 18.5616533,9.72236842 18.5616533,7.895 C18.5616533,6.06657895 17.8400533,4.34921053 16.5301867,3.05710526 C15.2208533,1.76447368 13.47952,1.05289474 11.6277867,1.05289474 C9.77552,1.05289474 8.03365333,1.76447368 6.72378667,3.05710526 C4.53285333,5.21973684 4.06832,8.59184211 5.59418667,11.2565789 C5.71258667,11.4623684 5.67632,11.7202632 5.50725333,11.8876316 L1.28752,16.0513158 Z M3.55098667,19.555 C3.41445333,19.555 3.27792,19.5044737 3.17392,19.4013158 L0.15632,16.4234211 C0.0560533333,16.325 5.33333333e-05,16.1913158 5.33333333e-05,16.0513158 C5.33333333e-05,15.9118421 0.0560533333,15.7781579 0.15632,15.6797368 L4.47418667,11.4186842 C2.94832,8.40447368 3.53765333,4.71342105 5.96965333,2.31236842 C7.48112,0.821315789 9.49072,0.000263157895 11.6277867,0.000263157895 C13.7648533,0.000263157895 15.7733867,0.821315789 17.28432,2.31236842 C18.7957867,3.80342105 19.62832,5.78552632 19.62832,7.895 C19.62832,10.0039474 18.7957867,11.9860526 17.28432,13.4776316 C15.7744533,14.9671053 13.76592,15.7881579 11.6309867,15.7881579 L11.6304533,15.7881579 C10.4853867,15.7881579 9.34512,15.5439474 8.30885333,15.0786842 L3.92805333,19.4013158 C3.82405333,19.5044737 3.68752,19.555 3.55098667,19.555 Z" id="Fill-1"></path>
                                <path d="M21.84224,9.41684211 C21.55744,9.41684211 21.2891733,9.52631579 21.0875733,9.72578947 C20.6721067,10.1357895 20.67264,10.8031579 21.0881067,11.2147368 C21.49024,11.61 22.1931733,11.6115789 22.59744,11.2131579 C23.01184,10.8031579 23.0123733,10.1357895 22.5969067,9.72578947 C22.3953067,9.52631579 22.12704,9.41684211 21.84224,9.41684211 M21.84224,12.5742105 C21.27264,12.5742105 20.73664,12.3552632 20.3339733,11.9584211 C19.5019733,11.1368421 19.5019733,9.80052632 20.33344,8.98105263 C21.13984,8.18578947 22.54464,8.18578947 23.35104,8.98105263 C24.1825067,9.80052632 24.1825067,11.1368421 23.3515733,11.9578947 C22.94784,12.3552632 22.41184,12.5742105 21.84224,12.5742105" id="Fill-5"></path>
                                <polygon id="Fill-3" points="8.07610667 15.3071053 4.30544 11.5860526 5.05957333 10.8423684 8.83024 14.5634211"></polygon>
                            </g>
                        </g>
                    </g>
                </g>
            </g>
        </g>
    </g>
</svg>